<?xml version="1.0" encoding="utf-8"?>
<!-- Generator: Adobe Illustrator 25.3.1, SVG Export Plug-In . SVG Version: 6.00 Build 0)  -->
<svg version="1.1" id="svg" xmlns="http://www.w3.org/2000/svg" xmlns:xlink="http://www.w3.org/1999/xlink" x="0px" y="0px"
	 viewBox="0 0 65 65" style="enable-background:new 0 0 65 65;" xml:space="preserve">
<style type="text/css">
	.st0{fill-rule:evenodd;clip-rule:evenodd;fill:#19EDD0;}
</style>
<g>
	<path class="st0" d="M2.8,11.4c-3.5,0.9-3.5,3.6,0.1,11.4c0.1,0.3,0.4,1,0.6,1.6C3.7,25,4,25.6,4.1,25.9c0.1,0.2,0.5,1.2,0.9,2.2
		c2.2,5.4,2.8,6.2,4.8,6.3c3.4,0.2,5-2.3,3.7-5.9c-0.4-1.1-1.4-3.7-1.8-4.5c-0.1-0.2-0.6-1.3-1.1-2.6c-0.5-1.2-1.1-2.7-1.4-3.3
		c-0.2-0.6-0.6-1.5-0.8-2C7,12,5.4,10.7,2.8,11.4"/>
	<path class="st0" d="M31.7,11.3c-1.9,0.3-2.5,1.1-5,7.6c-0.2,0.6-0.7,1.7-1.1,2.6c-0.3,0.8-0.9,2.1-1.2,2.9
		c-0.3,0.7-0.6,1.6-0.7,1.8c-0.1,0.3-0.5,1.2-0.8,2c-0.3,0.9-0.7,1.7-0.8,1.9c-0.4,0.9-6.1,14.9-6.9,17.1c-1,2.6-0.9,4.2,0.4,5.5
		c1.4,1.4,4.1,1.3,5.4-0.2c0.7-0.7,0.8-1.1,2.2-4.5c0.1-0.2,0.3-0.7,0.5-1.2c0.2-0.5,0.6-1.4,0.8-2c0.2-0.6,0.9-2.3,1.5-3.8
		c0.6-1.5,1.5-3.7,2.1-5.1c0.5-1.3,1.1-2.9,1.3-3.4c0.2-0.5,0.6-1.4,0.8-2c0.2-0.5,0.8-1.8,1.2-2.7c1.1-2.6,1.1-2.6,3,2
		c1.1,2.7,1.5,3.4,2.4,4c1.9,1.2,4.8,0.4,5.6-1.6c0.6-1.5,0.2-3.3-2.5-9.4c-0.2-0.4-4.2-10-4.6-10.4C34.6,11.5,33.2,11.1,31.7,11.3"
		/>
	<path class="st0" d="M59.9,11.4c0,0-0.1,0-0.1,0c-0.2,0-0.4,0.1-0.5,0.2c-0.3,0.2-0.6,0.4-0.9,0.7c-0.1,0.1-0.1,0.1-0.2,0.2
		c-0.5,0.7-0.8,1.4-1.2,2.2C52.7,25.5,48.3,36.3,43.9,47c-0.5,1.1-0.9,2.3-0.8,3.5c0.1,1.2,0.9,2.3,1.9,2.8c1,0.6,2.4,0.6,3.4,0
		c1.5-0.8,2.3-2.5,2.9-4.1c4.2-10.2,8.3-20.5,12.5-30.7c0.6-1.5,1.3-3.3,0.8-4.9c-0.2-0.6-0.6-1.2-1.1-1.6c-0.5-0.4-1.1-0.7-1.8-0.8
		c-0.3-0.1-0.5-0.1-0.8-0.1c-0.3,0-0.6,0.1-0.9,0.1C60,11.4,60,11.4,59.9,11.4z"/>
</g>
</svg>
